<mxfile host="app.diagrams.net" modified="2023-02-27T12:55:22.650Z" agent="5.0 (Windows NT 10.0; Win64; x64) AppleWebKit/537.36 (KHTML, like Gecko) Chrome/110.0.0.0 Safari/537.36" etag="DGIwSWgYqp-48uC_bOnm" version="20.8.23" type="github">
  <diagram name="Page-1" id="0783ab3e-0a74-02c8-0abd-f7b4e66b4bec">
    <mxGraphModel dx="993" dy="588" grid="1" gridSize="10" guides="1" tooltips="1" connect="1" arrows="1" fold="1" page="1" pageScale="1" pageWidth="850" pageHeight="1100" background="none" math="0" shadow="0">
      <root>
        <mxCell id="0" />
        <mxCell id="1" parent="0" />
        <mxCell id="1c1d494c118603dd-1" value="服务发现与治理" style="swimlane;html=1;childLayout=stackLayout;startSize=20;rounded=0;shadow=0;comic=0;labelBackgroundColor=none;strokeWidth=1;fontFamily=Verdana;fontSize=12;align=center;" parent="1" vertex="1">
          <mxGeometry x="40" y="30" width="510" height="990" as="geometry" />
        </mxCell>
        <mxCell id="1c1d494c118603dd-2" value="微服务注册与健康检查模块" style="swimlane;html=1;startSize=20;" parent="1c1d494c118603dd-1" vertex="1">
          <mxGeometry y="20" width="260" height="970" as="geometry" />
        </mxCell>
        <mxCell id="7hyLR-doqoERJoHg0xrb-2" value="" style="ellipse;whiteSpace=wrap;html=1;rounded=0;shadow=0;comic=0;labelBackgroundColor=none;strokeWidth=1;fillColor=#000000;fontFamily=Verdana;fontSize=12;align=center;" parent="1c1d494c118603dd-2" vertex="1">
          <mxGeometry x="40" y="50" width="40" height="40" as="geometry" />
        </mxCell>
        <mxCell id="7hyLR-doqoERJoHg0xrb-14" value="" style="edgeStyle=orthogonalEdgeStyle;rounded=0;orthogonalLoop=1;jettySize=auto;html=1;exitX=0.5;exitY=1;exitDx=0;exitDy=0;" parent="1c1d494c118603dd-2" source="7hyLR-doqoERJoHg0xrb-2" target="7hyLR-doqoERJoHg0xrb-11" edge="1">
          <mxGeometry relative="1" as="geometry">
            <mxPoint x="60" y="160" as="sourcePoint" />
          </mxGeometry>
        </mxCell>
        <mxCell id="7hyLR-doqoERJoHg0xrb-15" value="注册中心启动" style="edgeStyle=orthogonalEdgeStyle;rounded=0;orthogonalLoop=1;jettySize=auto;html=1;exitX=0.5;exitY=1;exitDx=0;exitDy=0;entryX=0.5;entryY=0;entryDx=0;entryDy=0;" parent="1c1d494c118603dd-2" source="7hyLR-doqoERJoHg0xrb-11" edge="1">
          <mxGeometry relative="1" as="geometry">
            <mxPoint x="60" y="242.0000000000001" as="targetPoint" />
          </mxGeometry>
        </mxCell>
        <mxCell id="VDJhwNbfPTTEmlQy1ukO-14" value="未启动" style="edgeStyle=orthogonalEdgeStyle;rounded=0;orthogonalLoop=1;jettySize=auto;html=1;exitX=1;exitY=0.5;exitDx=0;exitDy=0;entryX=0;entryY=0.5;entryDx=0;entryDy=0;" parent="1c1d494c118603dd-2" source="7hyLR-doqoERJoHg0xrb-11" target="VDJhwNbfPTTEmlQy1ukO-10" edge="1">
          <mxGeometry relative="1" as="geometry">
            <mxPoint x="140" y="161" as="targetPoint" />
          </mxGeometry>
        </mxCell>
        <mxCell id="7hyLR-doqoERJoHg0xrb-11" value="" style="rhombus;whiteSpace=wrap;html=1;" parent="1c1d494c118603dd-2" vertex="1">
          <mxGeometry x="35" y="142" width="50" height="38" as="geometry" />
        </mxCell>
        <mxCell id="7hyLR-doqoERJoHg0xrb-13" value="" style="shape=mxgraph.bpmn.shape;html=1;verticalLabelPosition=bottom;labelBackgroundColor=#ffffff;verticalAlign=top;perimeter=ellipsePerimeter;outline=end;symbol=terminate;rounded=0;shadow=0;comic=0;strokeWidth=1;fontFamily=Verdana;fontSize=12;align=center;" parent="1c1d494c118603dd-2" vertex="1">
          <mxGeometry x="180" y="50" width="40" height="40" as="geometry" />
        </mxCell>
        <mxCell id="VDJhwNbfPTTEmlQy1ukO-16" style="edgeStyle=orthogonalEdgeStyle;rounded=0;orthogonalLoop=1;jettySize=auto;html=1;exitX=0.5;exitY=1;exitDx=0;exitDy=0;entryX=0.5;entryY=0;entryDx=0;entryDy=0;" parent="1c1d494c118603dd-2" source="VDJhwNbfPTTEmlQy1ukO-9" target="VDJhwNbfPTTEmlQy1ukO-15" edge="1">
          <mxGeometry relative="1" as="geometry" />
        </mxCell>
        <mxCell id="VDJhwNbfPTTEmlQy1ukO-9" value="注册微服务" style="rounded=1;whiteSpace=wrap;html=1;shadow=0;comic=0;labelBackgroundColor=none;strokeWidth=1;fontFamily=Verdana;fontSize=12;align=center;arcSize=50;" parent="1c1d494c118603dd-2" vertex="1">
          <mxGeometry x="10" y="242" width="100" height="30" as="geometry" />
        </mxCell>
        <mxCell id="VDJhwNbfPTTEmlQy1ukO-13" style="edgeStyle=orthogonalEdgeStyle;rounded=0;orthogonalLoop=1;jettySize=auto;html=1;exitX=0.5;exitY=0;exitDx=0;exitDy=0;entryX=0.5;entryY=1;entryDx=0;entryDy=0;" parent="1c1d494c118603dd-2" target="7hyLR-doqoERJoHg0xrb-13" edge="1">
          <mxGeometry relative="1" as="geometry">
            <mxPoint x="220" y="146" as="sourcePoint" />
            <Array as="points">
              <mxPoint x="200" y="146" />
            </Array>
          </mxGeometry>
        </mxCell>
        <mxCell id="VDJhwNbfPTTEmlQy1ukO-10" value="抛出异常" style="rounded=1;whiteSpace=wrap;html=1;shadow=0;comic=0;labelBackgroundColor=none;strokeWidth=1;fontFamily=Verdana;fontSize=12;align=center;arcSize=50;" parent="1c1d494c118603dd-2" vertex="1">
          <mxGeometry x="150" y="146" width="100" height="30" as="geometry" />
        </mxCell>
        <mxCell id="VDJhwNbfPTTEmlQy1ukO-18" style="edgeStyle=orthogonalEdgeStyle;rounded=0;orthogonalLoop=1;jettySize=auto;html=1;exitX=0.5;exitY=1;exitDx=0;exitDy=0;entryX=0.5;entryY=0;entryDx=0;entryDy=0;" parent="1c1d494c118603dd-2" source="VDJhwNbfPTTEmlQy1ukO-15" target="VDJhwNbfPTTEmlQy1ukO-17" edge="1">
          <mxGeometry relative="1" as="geometry">
            <mxPoint x="60" y="370" as="sourcePoint" />
          </mxGeometry>
        </mxCell>
        <mxCell id="VDJhwNbfPTTEmlQy1ukO-19" value="服务不存在" style="edgeLabel;html=1;align=center;verticalAlign=middle;resizable=0;points=[];" parent="VDJhwNbfPTTEmlQy1ukO-18" vertex="1" connectable="0">
          <mxGeometry x="-0.25" y="-3" relative="1" as="geometry">
            <mxPoint as="offset" />
          </mxGeometry>
        </mxCell>
        <mxCell id="VDJhwNbfPTTEmlQy1ukO-21" value="服务已存在" style="edgeStyle=orthogonalEdgeStyle;rounded=0;orthogonalLoop=1;jettySize=auto;html=1;exitX=1;exitY=0.5;exitDx=0;exitDy=0;entryX=0.5;entryY=1;entryDx=0;entryDy=0;" parent="1c1d494c118603dd-2" source="VDJhwNbfPTTEmlQy1ukO-15" target="VDJhwNbfPTTEmlQy1ukO-10" edge="1">
          <mxGeometry relative="1" as="geometry">
            <mxPoint x="150" y="329.0000000000001" as="targetPoint" />
          </mxGeometry>
        </mxCell>
        <mxCell id="VDJhwNbfPTTEmlQy1ukO-15" value="" style="rhombus;whiteSpace=wrap;html=1;" parent="1c1d494c118603dd-2" vertex="1">
          <mxGeometry x="35" y="310" width="50" height="38" as="geometry" />
        </mxCell>
        <mxCell id="VDJhwNbfPTTEmlQy1ukO-26" style="edgeStyle=orthogonalEdgeStyle;rounded=0;orthogonalLoop=1;jettySize=auto;html=1;exitX=1;exitY=0.5;exitDx=0;exitDy=0;entryX=0;entryY=0.5;entryDx=0;entryDy=0;" parent="1c1d494c118603dd-2" source="VDJhwNbfPTTEmlQy1ukO-17" target="VDJhwNbfPTTEmlQy1ukO-25" edge="1">
          <mxGeometry relative="1" as="geometry" />
        </mxCell>
        <mxCell id="VDJhwNbfPTTEmlQy1ukO-17" value="写入注册信息" style="rounded=1;whiteSpace=wrap;html=1;shadow=0;comic=0;labelBackgroundColor=none;strokeWidth=1;fontFamily=Verdana;fontSize=12;align=center;arcSize=50;" parent="1c1d494c118603dd-2" vertex="1">
          <mxGeometry x="10" y="402" width="100" height="30" as="geometry" />
        </mxCell>
        <mxCell id="VDJhwNbfPTTEmlQy1ukO-33" value="未通过定期健康检查" style="edgeStyle=orthogonalEdgeStyle;rounded=0;orthogonalLoop=1;jettySize=auto;html=1;exitX=0.5;exitY=1;exitDx=0;exitDy=0;entryX=0.5;entryY=0;entryDx=0;entryDy=0;" parent="1c1d494c118603dd-2" source="VDJhwNbfPTTEmlQy1ukO-25" target="VDJhwNbfPTTEmlQy1ukO-32" edge="1">
          <mxGeometry x="0.0156" relative="1" as="geometry">
            <mxPoint as="offset" />
          </mxGeometry>
        </mxCell>
        <mxCell id="VDJhwNbfPTTEmlQy1ukO-25" value="" style="rhombus;whiteSpace=wrap;html=1;fontStyle=1" parent="1c1d494c118603dd-2" vertex="1">
          <mxGeometry x="175" y="398" width="50" height="38" as="geometry" />
        </mxCell>
        <mxCell id="VDJhwNbfPTTEmlQy1ukO-36" style="edgeStyle=orthogonalEdgeStyle;rounded=0;orthogonalLoop=1;jettySize=auto;html=1;exitX=0.5;exitY=1;exitDx=0;exitDy=0;entryX=0.5;entryY=0;entryDx=0;entryDy=0;" parent="1c1d494c118603dd-2" source="VDJhwNbfPTTEmlQy1ukO-32" target="VDJhwNbfPTTEmlQy1ukO-35" edge="1">
          <mxGeometry relative="1" as="geometry" />
        </mxCell>
        <mxCell id="VDJhwNbfPTTEmlQy1ukO-32" value="删除注册信息" style="rounded=1;whiteSpace=wrap;html=1;shadow=0;comic=0;labelBackgroundColor=none;strokeWidth=1;fontFamily=Verdana;fontSize=12;align=center;arcSize=50;" parent="1c1d494c118603dd-2" vertex="1">
          <mxGeometry x="150" y="500" width="100" height="30" as="geometry" />
        </mxCell>
        <mxCell id="VDJhwNbfPTTEmlQy1ukO-35" value="" style="shape=mxgraph.bpmn.shape;html=1;verticalLabelPosition=bottom;labelBackgroundColor=#ffffff;verticalAlign=top;perimeter=ellipsePerimeter;outline=end;symbol=terminate;rounded=0;shadow=0;comic=0;strokeWidth=1;fontFamily=Verdana;fontSize=12;align=center;" parent="1c1d494c118603dd-2" vertex="1">
          <mxGeometry x="180" y="580" width="40" height="40" as="geometry" />
        </mxCell>
        <mxCell id="VDJhwNbfPTTEmlQy1ukO-38" style="edgeStyle=orthogonalEdgeStyle;rounded=0;orthogonalLoop=1;jettySize=auto;html=1;exitX=1;exitY=0.5;exitDx=0;exitDy=0;entryX=0.5;entryY=0;entryDx=0;entryDy=0;" parent="1c1d494c118603dd-1" source="VDJhwNbfPTTEmlQy1ukO-25" target="VDJhwNbfPTTEmlQy1ukO-37" edge="1">
          <mxGeometry relative="1" as="geometry" />
        </mxCell>
        <mxCell id="VDJhwNbfPTTEmlQy1ukO-39" value="通过检查" style="edgeLabel;html=1;align=center;verticalAlign=middle;resizable=0;points=[];" parent="VDJhwNbfPTTEmlQy1ukO-38" vertex="1" connectable="0">
          <mxGeometry x="-0.5935" y="-1" relative="1" as="geometry">
            <mxPoint as="offset" />
          </mxGeometry>
        </mxCell>
        <mxCell id="1c1d494c118603dd-3" value="服务发现及治理策略模块" style="swimlane;html=1;startSize=20;" parent="1c1d494c118603dd-1" vertex="1">
          <mxGeometry x="260" y="20" width="250" height="970" as="geometry" />
        </mxCell>
        <mxCell id="VDJhwNbfPTTEmlQy1ukO-44" style="edgeStyle=orthogonalEdgeStyle;rounded=0;orthogonalLoop=1;jettySize=auto;html=1;entryX=0.5;entryY=0;entryDx=0;entryDy=0;" parent="1c1d494c118603dd-3" source="VDJhwNbfPTTEmlQy1ukO-37" target="YYZcX5fX8Puzs6F6f-0W-1" edge="1">
          <mxGeometry relative="1" as="geometry">
            <mxPoint x="140" y="124.99999999999989" as="targetPoint" />
          </mxGeometry>
        </mxCell>
        <mxCell id="VDJhwNbfPTTEmlQy1ukO-37" value="提供服务发现" style="rounded=1;whiteSpace=wrap;html=1;shadow=0;comic=0;labelBackgroundColor=none;strokeWidth=1;fontFamily=Verdana;fontSize=12;align=center;arcSize=50;" parent="1c1d494c118603dd-3" vertex="1">
          <mxGeometry x="90" y="60" width="100" height="30" as="geometry" />
        </mxCell>
        <mxCell id="YYZcX5fX8Puzs6F6f-0W-1" value="" style="rhombus;whiteSpace=wrap;html=1;" vertex="1" parent="1c1d494c118603dd-3">
          <mxGeometry x="115" y="140" width="50" height="38" as="geometry" />
        </mxCell>
        <mxCell id="YYZcX5fX8Puzs6F6f-0W-2" value="抛出异常" style="rounded=1;whiteSpace=wrap;html=1;shadow=0;comic=0;labelBackgroundColor=none;strokeWidth=1;fontFamily=Verdana;fontSize=12;align=center;arcSize=50;" vertex="1" parent="1c1d494c118603dd-3">
          <mxGeometry x="90" y="220" width="100" height="30" as="geometry" />
        </mxCell>
      </root>
    </mxGraphModel>
  </diagram>
</mxfile>
